<svg xmlns="http://www.w3.org/2000/svg" xmlns:xlink="http://www.w3.org/1999/xlink" width="1000" zoomAndPan="magnify" viewBox="0 0 750 299.999988" height="400" preserveAspectRatio="xMidYMid meet" version="1.0"><defs><g/></defs><path fill="#000000" d="M 189.28125 44.875 C 174.839844 47.882812 162.203125 53.660156 146.195312 64.371094 C 125.375 78.210938 103.710938 106.738281 96.007812 130.207031 C 91.554688 143.6875 89.144531 157.046875 90.109375 162.703125 C 91.070312 168.960938 95.886719 178.46875 99.976562 182.199219 C 103.226562 185.210938 111.773438 190.023438 116.707031 191.46875 C 119.234375 192.3125 119.355469 192.070312 118.753906 188.699219 C 117.671875 183.285156 120.4375 174.859375 124.53125 170.886719 L 128.140625 167.515625 L 127.058594 171.128906 C 126.578125 173.054688 126.214844 178.347656 126.335938 182.921875 C 126.457031 189.785156 127.179688 192.3125 130.910156 198.929688 L 135.242188 206.875 L 130.789062 206.03125 C 124.773438 204.949219 109.484375 198.808594 102.023438 194.597656 C 95.285156 190.746094 89.746094 185.332031 85.894531 178.953125 L 83.367188 174.738281 L 83.367188 178.347656 C 83.367188 180.273438 83.96875 184.125 84.570312 186.773438 C 87.101562 198.328125 109.484375 211.449219 135.605469 216.984375 C 140.296875 217.945312 145.113281 219.03125 146.195312 219.390625 C 148.121094 219.992188 148.121094 219.753906 146.316406 216.261719 C 144.027344 211.566406 144.75 203.261719 147.878906 198.570312 L 150.167969 195.199219 L 150.890625 201.820312 C 151.851562 210.964844 154.742188 216.382812 162.925781 224.808594 L 170.027344 231.910156 L 165.691406 231.910156 C 158.351562 231.910156 131.632812 226.011719 118.273438 221.558594 C 101.664062 215.902344 94.683594 212.53125 88.183594 206.996094 L 83.007812 202.542969 L 83.851562 206.03125 C 84.332031 208.078125 85.175781 210.964844 85.894531 212.652344 C 89.988281 223.121094 129.828125 237.082031 166.535156 240.933594 C 176.042969 241.898438 184.109375 242.742188 184.347656 242.742188 C 184.589844 242.742188 183.386719 241.65625 181.820312 240.332031 C 180.136719 239.128906 178.089844 236.363281 177.246094 234.316406 C 175.320312 229.621094 176.285156 219.152344 178.933594 216.503906 C 180.738281 214.699219 180.859375 214.9375 180.859375 219.390625 C 180.859375 222.28125 182.183594 226.855469 184.226562 230.824219 C 186.875 236.242188 188.5625 237.925781 193.976562 240.574219 C 201.078125 244.183594 208.179688 244.90625 216.121094 242.621094 C 225.148438 240.09375 233.695312 229.261719 233.816406 220.113281 C 233.816406 215.539062 235.257812 215.058594 237.183594 219.269531 C 240.195312 225.890625 237.183594 238.289062 231.769531 241.417969 C 229 242.980469 229.242188 242.980469 247.898438 240.933594 C 277.144531 237.6875 308.796875 228.539062 321.796875 219.632812 C 327.8125 215.539062 330.101562 212.171875 330.101562 207.113281 C 330.101562 204.226562 329.980469 204.226562 323.601562 209.039062 C 316.378906 214.457031 304.707031 219.390625 286.171875 224.6875 C 273.292969 228.417969 255.238281 231.910156 248.859375 231.910156 L 244.886719 231.910156 L 252.109375 224.445312 C 260.171875 216.140625 262.582031 211.449219 263.785156 201.820312 L 264.746094 195.199219 L 267.273438 200.617188 C 270.164062 206.632812 270.523438 210.847656 268.71875 215.660156 L 267.515625 218.910156 L 272.570312 218.066406 C 287.613281 215.78125 306.632812 209.039062 316.140625 202.78125 C 326.371094 195.921875 331.546875 187.257812 330.339844 179.070312 C 329.980469 176.542969 329.5 176.90625 325.886719 182.320312 C 323.601562 185.570312 320.230469 189.542969 318.425781 190.988281 C 311.804688 196.164062 287.375 206.632812 281.835938 206.632812 C 279.910156 206.632812 280.03125 205.792969 283.28125 199.652344 C 287.496094 191.347656 289.179688 182.082031 287.855469 174.980469 C 286.410156 167.515625 286.53125 167.398438 289.902344 170.648438 C 294.957031 175.339844 296.761719 179.914062 296.160156 186.414062 C 295.558594 191.949219 295.679688 192.191406 298.085938 191.46875 C 308.917969 188.097656 317.582031 180.636719 321.554688 171.367188 C 328.414062 155.480469 320.714844 126.957031 302.296875 98.914062 C 287.855469 77.128906 262.339844 56.910156 238.628906 48.726562 C 221.898438 42.949219 204.566406 41.503906 189.28125 44.875 Z M 196.144531 66.296875 C 199.394531 69.066406 199.511719 69.546875 198.910156 78.09375 C 198.070312 91.691406 198.1875 110.347656 199.273438 116.125 L 200.234375 121.421875 L 193.855469 117.808594 C 182.542969 111.429688 174.117188 97.230469 172.792969 82.546875 C 171.710938 70.75 177.367188 63.527344 187.71875 63.410156 C 191.328125 63.410156 193.734375 64.25 196.144531 66.296875 Z M 234.898438 65.214844 C 250.0625 73.035156 239.109375 108.542969 218.289062 119.253906 L 214.4375 121.300781 L 215.402344 114.921875 C 216.363281 108.179688 216.484375 96.144531 215.640625 78.695312 C 215.160156 68.582031 215.28125 67.980469 218.167969 65.816406 C 221.78125 62.925781 230.085938 62.6875 234.898438 65.214844 Z M 160.878906 79.296875 C 165.089844 81.101562 165.574219 83.628906 163.285156 90.007812 C 158.832031 102.402344 160.277344 123.464844 166.414062 135.621094 C 169.542969 141.640625 167.859375 141.882812 159.914062 136.707031 C 148.363281 129.003906 141.621094 116.726562 140.417969 100.71875 C 139.816406 94.097656 140.175781 92.054688 142.585938 87.480469 C 144.390625 83.988281 146.796875 81.339844 149.566406 80.019531 C 154.5 77.492188 156.785156 77.371094 160.878906 79.296875 Z M 267.152344 80.859375 C 271.003906 83.386719 274.738281 91.570312 274.738281 97.710938 C 274.738281 112.875 263.90625 131.890625 251.628906 138.148438 C 249.222656 139.355469 246.933594 140.4375 246.691406 140.4375 C 246.332031 140.4375 247.777344 135.742188 249.824219 129.84375 C 254.515625 116.484375 254.996094 101.683594 251.265625 90.730469 L 248.859375 83.628906 L 252.351562 80.621094 C 256.320312 77.25 261.738281 77.371094 267.152344 80.859375 Z M 132.59375 107.820312 C 133.796875 108.664062 134.398438 112.03125 134.519531 120.21875 C 134.761719 134.058594 137.167969 142.363281 144.871094 155 C 151.128906 165.589844 150.769531 166.3125 140.898438 161.378906 C 131.871094 156.804688 123.328125 148.261719 119.355469 139.835938 C 112.015625 124.429688 116.585938 106.859375 127.902344 106.738281 C 129.585938 106.738281 131.632812 107.21875 132.59375 107.820312 Z M 293.03125 109.144531 C 294.714844 110.347656 296.761719 113.117188 297.605469 115.160156 C 299.652344 120.097656 298.566406 132.492188 295.4375 139.59375 C 292.1875 146.816406 281.835938 157.285156 273.773438 161.378906 C 264.867188 165.832031 260.773438 165.351562 266.3125 160.296875 C 273.171875 154.039062 281.476562 127.921875 280.152344 116.726562 C 279.792969 113.839844 280.152344 110.347656 280.753906 109.144531 C 282.4375 106.015625 289.058594 106.015625 293.03125 109.144531 Z M 293.03125 109.144531 " fill-opacity="1" fill-rule="nonzero"/><path fill="#000000" d="M 88.183594 229.140625 C 88.183594 231.066406 93.597656 238.167969 96.609375 240.332031 C 104.792969 246.230469 128.382812 251.648438 153.535156 253.574219 C 169.425781 254.777344 199.753906 255.257812 198.792969 254.296875 C 198.550781 253.933594 190.367188 252.851562 180.859375 251.886719 C 142.101562 247.554688 108.402344 239.730469 93.359375 231.308594 C 90.46875 229.742188 88.183594 228.777344 88.183594 229.140625 Z M 88.183594 229.140625 " fill-opacity="1" fill-rule="nonzero"/><path fill="#000000" d="M 322.878906 230.34375 C 316.980469 234.4375 302.417969 239.492188 284.363281 243.460938 C 267.875 247.074219 256.320312 249 222.984375 253.453125 C 215.761719 254.414062 219.25 254.535156 240.433594 254.175781 C 281.476562 253.332031 310 247.675781 320.953125 238.046875 C 323.242188 236 326.972656 229.621094 326.25 228.777344 C 326.007812 228.539062 324.445312 229.261719 322.878906 230.34375 Z M 322.878906 230.34375 " fill-opacity="1" fill-rule="nonzero"/><g fill="#000000" fill-opacity="1"><g transform="translate(374.999984, 197.999984)"><g><path d="M 48.097656 -24.335938 C 46.222656 -27.792969 42.769531 -29.953125 39.457031 -31.679688 C 36.289062 -33.265625 29.664062 -35.710938 25.777344 -37.007812 C 20.160156 -39.023438 12.671875 -41.328125 11.230469 -47.664062 C 10.078125 -52.414062 12.671875 -57.167969 17.425781 -58.894531 C 20.878906 -60.191406 24.769531 -59.902344 28.078125 -58.464844 C 31.96875 -56.878906 34.558594 -54.71875 37.441406 -51.695312 C 39.457031 -53.566406 41.902344 -56.015625 43.777344 -57.886719 C 38.734375 -62.496094 32.542969 -64.945312 25.632812 -65.375 C 22.320312 -65.664062 19.007812 -65.375 15.839844 -64.078125 C 12.816406 -62.929688 10.078125 -60.769531 8.496094 -57.886719 C 6.480469 -54.289062 6.769531 -49.96875 8.496094 -46.222656 C 12.238281 -38.015625 26.785156 -35.425781 34.558594 -31.679688 C 38.304688 -29.953125 43.054688 -26.929688 44.496094 -22.894531 C 45.359375 -20.304688 45.214844 -18.71875 44.496094 -16.128906 C 43.777344 -13.105469 41.472656 -10.511719 38.878906 -9.070312 C 34.273438 -6.480469 28.65625 -5.617188 23.472656 -7.199219 C 15.550781 -9.792969 9.503906 -19.441406 8.496094 -21.3125 L 1.871094 -14.6875 C 7.199219 -7.054688 13.96875 -2.304688 21.023438 -0.433594 C 21.886719 -0.144531 22.894531 0 23.761719 0.144531 C 26.640625 0.433594 29.519531 0.289062 32.398438 -0.289062 C 36.433594 -1.152344 39.886719 -2.59375 42.769531 -4.464844 C 45.9375 -6.769531 48.097656 -10.078125 49.105469 -13.535156 C 50.113281 -16.992188 49.679688 -21.167969 48.097656 -24.335938 Z M 48.097656 -24.335938 "/></g></g></g><g fill="#000000" fill-opacity="1"><g transform="translate(427.415958, 197.999984)"><g><path d="M 61.199219 -46.945312 C 55.007812 -59.328125 42.046875 -66.382812 28.65625 -64.078125 C 24.910156 -63.503906 21.457031 -61.34375 17.710938 -61.34375 C 7.488281 -61.34375 6.335938 -69.265625 6.335938 -69.265625 L 6.335938 35.425781 L 15.40625 35.425781 L 15.40625 -19.871094 C 15.40625 -15.695312 17.28125 -10.800781 20.734375 -6.910156 C 25.054688 -2.304688 30.382812 0.433594 39.3125 0 C 51.984375 -0.574219 62.351562 -11.664062 64.367188 -24.625 C 65.808594 -32.257812 64.65625 -40.175781 61.199219 -46.945312 Z M 58.894531 -26.0625 C 57.886719 -14.832031 50.832031 -3.601562 39.167969 -2.59375 C 33.550781 -1.871094 25.777344 -4.175781 21.601562 -8.785156 C 16.273438 -14.832031 15.550781 -20.59375 15.40625 -27.359375 L 15.40625 -51.839844 C 24.769531 -51.839844 26.496094 -56.878906 37.296875 -56.160156 C 40.609375 -55.726562 43.921875 -54.863281 46.800781 -53.28125 C 56.015625 -48.097656 60.191406 -37.296875 58.894531 -26.0625 Z M 58.894531 -26.0625 "/></g></g></g><g fill="#000000" fill-opacity="1"><g transform="translate(495.959917, 197.999984)"><g><path d="M 15.40625 0 L 15.40625 -64.945312 L 6.191406 -64.945312 L 6.191406 0 Z M 10.800781 -67.679688 C 10.800781 -73.152344 15.265625 -77.617188 20.734375 -77.617188 C 15.265625 -77.617188 10.800781 -82.078125 10.800781 -87.695312 C 10.800781 -82.078125 6.335938 -77.617188 0.863281 -77.617188 C 6.335938 -77.617188 10.800781 -73.152344 10.800781 -67.679688 Z M 10.800781 -67.679688 "/></g></g></g><g fill="#000000" fill-opacity="1"><g transform="translate(517.703907, 197.999984)"><g><path d="M 51.984375 -15.839844 C 47.089844 -10.222656 39.457031 -6.480469 31.390625 -6.480469 C 16.703125 -6.480469 5.183594 -17.710938 5.183594 -32.398438 C 5.183594 -47.089844 17.136719 -58.320312 31.824219 -58.320312 C 39.886719 -58.320312 47.230469 -54.71875 51.984375 -48.960938 L 58.175781 -55.871094 C 52.273438 -61.488281 44.351562 -64.945312 35.566406 -64.945312 C 17.710938 -64.945312 3.167969 -50.398438 3.167969 -32.398438 C 3.167969 -14.542969 17.710938 0 35.566406 0 C 44.351562 0 52.273438 -3.3125 58.175781 -8.929688 Z M 51.984375 -15.839844 "/></g></g></g><g fill="#000000" fill-opacity="1"><g transform="translate(578.183867, 197.999984)"><g><path d="M 40.609375 -31.824219 C 29.519531 -30.527344 17.710938 -31.390625 5.761719 -32.832031 C 5.761719 -32.832031 43.921875 -21.3125 58.320312 -34.128906 C 62.640625 -38.015625 64.078125 -44.351562 62.0625 -49.824219 C 59.902344 -55.871094 53.710938 -60.191406 48.097656 -62.496094 C 44.0625 -64.078125 39.886719 -64.945312 35.566406 -64.945312 C 17.710938 -64.945312 3.167969 -50.398438 3.167969 -32.398438 C 3.167969 -14.542969 17.710938 0 35.566406 0 C 44.351562 0 52.273438 -3.3125 58.175781 -8.929688 L 51.984375 -15.839844 C 47.089844 -10.222656 39.457031 -6.480469 31.390625 -6.480469 C 16.703125 -6.480469 5.183594 -17.710938 5.183594 -32.398438 C 5.183594 -47.089844 17.136719 -58.320312 31.824219 -58.320312 C 37.296875 -58.320312 43.777344 -56.734375 48.238281 -53.710938 C 52.558594 -50.6875 57.3125 -44.0625 53.566406 -38.734375 C 50.976562 -34.847656 46.078125 -32.398438 40.609375 -31.824219 Z M 40.609375 -31.824219 "/></g></g></g></svg>